<svg width="120" height="60" viewBox="0 0 120 60" fill="none" xmlns="http://www.w3.org/2000/svg">
  <!-- Simple Apple-like logo example -->
  <path d="M35.5 15c-1.2-2.8-3.8-4.5-6.5-4.5-2.5 0-5 1.5-6.5 4.5-1.8 3.5-1.8 8.5 0 12 1.5 3 4 4.5 6.5 4.5 2.7 0 5.3-1.7 6.5-4.5 1.8-3.5 1.8-8.5 0-12z" fill="#333"/>
  <path d="M32 8c0-2-1.5-4-3.5-4s-3.5 2-3.5 4c0 1.5 1 3 2.5 3.5 0.5-1.2 2-2.5 4.5-3.5z" fill="#333"/>
  <text x="45" y="35" font-family="Arial, sans-serif" font-size="16" font-weight="bold" fill="#333">EXEMPLE</text>
</svg>